<svg xmlns="http://www.w3.org/2000/svg" xmlns:xlink="http://www.w3.org/1999/xlink" width="829" height="177" viewBox="0 0 829 177">
  <defs>
    <clipPath id="clip-Artboard_2">
      <rect width="829" height="177"/>
    </clipPath>
  </defs>
  <g id="Artboard_2" data-name="Artboard – 2" clip-path="url(#clip-Artboard_2)">
    <g id="escl_soft_logo" transform="translate(56.029 26.917)">
      <g id="Group_1" data-name="Group 1" transform="translate(1.971 1.099)">
        <path id="Path_1" data-name="Path 1" d="M42.256,21.286C18.3,21.286,1.971,38.835,1.971,61.573s16.175,40.284,41.812,40.284c14.649,0,26.1-5.952,33.268-16.328L61.178,76.374C57.822,80.8,51.717,84,44.087,84a26.893,26.893,0,0,1-10.6-1.888,18.161,18.161,0,0,1-7.834-5.925,25.07,25.07,0,0,1-4.876-14.45,25.775,25.775,0,0,1,4.5-14.53,19.925,19.925,0,0,1,2.751-3.238,18.567,18.567,0,0,1,8.362-4.323,27.186,27.186,0,0,1,5.865-.663c8.241,0,16.482,4.426,18.922,15.413H33.451V69.658H80.1a45.467,45.467,0,0,0,.762-8.086C80.864,39.139,64.842,21.286,42.256,21.286Z" transform="translate(-1.971 9.627)"/>
        <path id="Path_2" data-name="Path 2" d="M81.133,44.813c0-4.12,3.967-6.255,8.85-6.255a12.907,12.907,0,0,1,12.207,7.782l16.788-9.156c-5.952-10.528-16.635-16.174-29-16.174-15.718,0-28.994,8.7-28.994,24.263,0,26.858,39.371,20.754,39.371,31.893,0,4.427-4.274,6.564-10.531,6.564-7.63,0-12.818-3.663-14.954-9.919L57.784,83.423c5.494,11.753,16.786,18.159,32.046,18.159,16.328,0,30.673-7.936,30.673-24.418C120.5,49.084,81.133,56.106,81.133,44.813Z" transform="translate(27.66 9.48)"/>
        <path id="Path_3" data-name="Path 3" d="M143.875,82.047c-11.75,0-20.45-8.7-20.45-20.754,0-12.209,8.7-20.9,20.45-20.9,7.783,0,14.344,3.967,17.4,10.225l16.938-9.92c-6.255-11.75-19.228-19.684-34.183-19.684-23.195,0-40.285,17.549-40.285,40.285s17.091,40.287,40.285,40.287a39.079,39.079,0,0,0,34.488-19.839l-17.091-9.764C158.371,78.232,151.809,82.047,143.875,82.047Z" transform="translate(52.058 9.48)"/>
        <path id="Path_4" data-name="Path 4" d="M196.262,21.008a39.863,39.863,0,0,0-40.284,40.285,40.362,40.362,0,0,0,80.724,0A39.993,39.993,0,0,0,196.262,21.008Zm0,61.344c-11.595,0-20.6-8.7-20.6-21.059s9-21.057,20.6-21.057c11.753,0,20.754,8.7,20.754,21.057S208.015,82.352,196.262,82.352Z" transform="translate(79.79 9.48)"/>
        <path id="Path_5" data-name="Path 5" d="M217.782,110.016h19.687V1.093L217.782,7.249Z" transform="translate(112.601 -1.093)"/>
        <path id="Path_6" data-name="Path 6" d="M301.768,23.144v9c-5.493-6.866-13.734-11.139-24.871-11.139-20.3,0-37.084,17.549-37.084,40.285S256.6,101.58,276.9,101.58c11.137,0,19.378-4.273,24.871-11.14v9h19.686v-76.3ZM280.558,82.812c-12.053,0-21.059-8.7-21.059-21.518s9.006-21.517,21.059-21.517c12.209,0,21.211,8.7,21.211,21.517S292.765,82.812,280.558,82.812Z" transform="translate(124.297 9.48)"/>
      </g>
      <g id="Group_2" data-name="Group 2" transform="translate(468.94 1.083)">
        <path id="Path_7" data-name="Path 7" d="M365.906,78.483c0,14.193-12.209,22.893-28.534,22.893-15.261,0-25.944-7.325-30.37-17.856l11.446-6.56c2.44,7.324,9.461,11.9,18.923,11.9,8.085,0,15.105-2.9,15.105-10.379,0-16.327-42.73-7.016-42.73-34.638,0-13.429,11.6-22.738,27.012-22.738,12.514,0,22.587,5.952,27.469,15.871l-11.14,6.255c-2.9-6.866-9.612-9.766-16.328-9.766-6.865,0-13.581,3.359-13.581,10.225C323.178,60.021,365.906,50.407,365.906,78.483Z" transform="translate(-307.002 9.548)"/>
        <path id="Path_8" data-name="Path 8" d="M351.563,61.241A40.21,40.21,0,1,1,391.7,101.376,39.8,39.8,0,0,1,351.563,61.241Zm67.143,0c0-15.411-11.751-27.163-27.012-27.163-15.105,0-26.856,11.751-26.856,27.163S376.588,88.4,391.694,88.4C406.955,88.4,418.706,76.654,418.706,61.241Z" transform="translate(-283.345 9.548)"/>
        <path id="Path_9" data-name="Path 9" d="M433.768,31.433v2.289h20.143V46.54H433.768v63.481H420.492V46.54H408.283V33.722h12.209V31.433c0-20.3,11.6-31.74,33.419-30.215V14.036C440.635,12.969,433.768,18.157,433.768,31.433Z" transform="translate(-253.233 -1.083)"/>
        <path id="Path_10" data-name="Path 10" d="M459.373,42.63V83.985c0,11.6,6.716,10.836,20.3,10.225v11.9c-22.892,3.053-33.572-3.051-33.572-22.128V12.416l13.273-3.968V29.813h20.3V42.631h-20.3Z" transform="translate(-233.156 2.828)"/>
      </g>
    </g>
  </g>
</svg>
